<svg width="25" height="25" viewBox="0 0 25 25" fill="none" xmlns="http://www.w3.org/2000/svg">
<path d="M6.71777 9.04614V2.04614H18.7178V9.04614" stroke="#5ABE22" stroke-width="2" stroke-linecap="round" stroke-linejoin="round"/>
<path d="M6.71777 18.0461H4.71777C4.18734 18.0461 3.67863 17.8354 3.30356 17.4604C2.92849 17.0853 2.71777 16.5766 2.71777 16.0461V11.0461C2.71777 10.5157 2.92849 10.007 3.30356 9.63193C3.67863 9.25686 4.18734 9.04614 4.71777 9.04614H20.7178C21.2482 9.04614 21.7569 9.25686 22.132 9.63193C22.5071 10.007 22.7178 10.5157 22.7178 11.0461V16.0461C22.7178 16.5766 22.5071 17.0853 22.132 17.4604C21.7569 17.8354 21.2482 18.0461 20.7178 18.0461H18.7178" stroke="#5ABE22" stroke-width="2" stroke-linecap="round" stroke-linejoin="round"/>
<path d="M18.7178 14.0461H6.71777V22.0461H18.7178V14.0461Z" stroke="#5ABE22" stroke-width="2" stroke-linecap="round" stroke-linejoin="round"/>
</svg>
