<svg width="25" height="25" viewBox="0 0 25 25" fill="none" xmlns="http://www.w3.org/2000/svg">
<path d="M3.92139 6.13867H5.92139H21.9214" stroke="#5ABE22" stroke-width="2" stroke-linecap="round" stroke-linejoin="round"/>
<path d="M19.9214 6.13867V20.1387C19.9214 20.6691 19.7107 21.1778 19.3356 21.5529C18.9605 21.928 18.4518 22.1387 17.9214 22.1387H7.92139C7.39095 22.1387 6.88225 21.928 6.50717 21.5529C6.1321 21.1778 5.92139 20.6691 5.92139 20.1387V6.13867M8.92139 6.13867V4.13867C8.92139 3.60824 9.1321 3.09953 9.50717 2.72446C9.88225 2.34939 10.391 2.13867 10.9214 2.13867H14.9214C15.4518 2.13867 15.9605 2.34939 16.3356 2.72446C16.7107 3.09953 16.9214 3.60824 16.9214 4.13867V6.13867" stroke="#5ABE22" stroke-width="2" stroke-linecap="round" stroke-linejoin="round"/>
<path d="M10.9214 11.1387V17.1387" stroke="#5ABE22" stroke-width="2" stroke-linecap="round" stroke-linejoin="round"/>
<path d="M14.9214 11.1387V17.1387" stroke="#5ABE22" stroke-width="2" stroke-linecap="round" stroke-linejoin="round"/>
</svg>
